#!OML:ASF F:\VICON\USERDATA\INSTALL\rory3\rory3.ASF
:FULLY-SPECIFIED
:DEGREES
256
root -2.67586 16.4594 15.8225 -26.7847 58.7032 -194.068
lowerback -2.08717 3.80202 11.2833
upperback -7.78041 6.77106 10.087
thorax -7.26651 3.42069 4.20243
lowerneck -34.8268 -6.10755 -20.6854
upperneck 0.580118 0.369796 9.76766
head 5.18352 1.23754 6.62415
rclavicle 1.1609e-013 1.43125e-014
rhumerus 74.8984 -19.2304 -4.39098
rradius 39.0133
rwrist 19.4449
rhand -30.0655 99.3097
rfingers 7.12502
rthumb -3.38071 -1310.74
lclavicle 1.1609e-013 1.43125e-014
lhumerus 51.2403 29.0877 16.7949
lradius 47.1901
lwrist 2.28525
lhand -49.858 103.074
lfingers 7.12502
lthumb -22.4528 -74.3591
rfemur -89.1347 -33.8079 -9.95201
rtibia 74.9355
rfoot -17.708 -27.7064
rtoes 11.9017
lfemur -21.7875 21.8692 4.23082
ltibia 53.7608
lfoot -17.7991 10.5744
ltoes -10.5504
257
root -2.66541 16.481 15.6341 -24.4022 60.0579 -192.529
lowerback -3.16602 3.72798 10.5989
upperback -8.01375 6.3995 9.59174
thorax -6.87515 3.25279 4.12017
lowerneck -35.6432 -6.35702 -20.8121
upperneck 0.92734 0.236026 10.2986
head 5.4223 1.22657 6.83963
rclavicle 3.10104e-013 -7.95139e-015
rhumerus 74.9279 -19.3667 -4.39054
rradius 38.3803
rwrist 19.3638
rhand -30.0775 99.0505
rfingers 7.12502
rthumb -3.39227 -1311
lclavicle 3.10104e-013 -7.95139e-015
lhumerus 50.5733 28.6332 15.8864
lradius 47.6277
lwrist 2.33733
lhand -47.3604 95.7302
lfingers 7.12502
lthumb -20.0537 -66.7451
rfemur -88.3772 -33.4843 -9.61792
rtibia 76.2422
rfoot -18.5599 -27.1805
rtoes 11.2943
lfemur -24.145 21.6493 3.89386
ltibia 51.5226
lfoot -18.7042 10.8582
ltoes -8.63435
258
root -2.65209 16.4956 15.4394 -22.406 61.3272 -191.5
lowerback -4.25012 3.6508 10.3403
upperback -8.21189 6.0417 9.11652
thorax -6.41752 3.06653 3.82843
lowerneck -36.5495 -6.44959 -20.6878
upperneck 1.12855 0.261597 10.6194
head 5.59707 1.29427 6.96316
rclavicle -1.53462e-013 1.59028e-013
rhumerus 75.0755 -19.6675 -4.76978
rradius 37.7723
rwrist 19.5879
rhand -29.3982 98.2741
rfingers 7.12502
rthumb -2.73628 -1311.76
lclavicle -1.53462e-013 1.59028e-013
lhumerus 50.6004 28.523 15.7636
lradius 47.6783
lwrist 2.0917
lhand -47.1296 94.665
lfingers 7.12502
lthumb -19.8319 -65.6568
rfemur -87.6776 -33.1893 -8.88009
rtibia 77.6278
rfoot -19.1942 -26.5935
rtoes 11.8879
lfemur -26.6519 21.1805 4.08202
ltibia 49.4482
lfoot -18.8152 11.7124
ltoes -10.0427
259
root -2.63684 16.5142 15.2451 -21.3735 62.4506 -191.381
lowerback -5.02222 3.5704 10.7398
upperback -8.40765 5.73483 8.59965
thorax -6.09388 2.8559 3.11239
lowerneck -37.5359 -6.47785 -20.4124
upperneck 1.40411 0.318788 10.925
head 5.80198 1.37862 7.06792
rclavicle -1.4233e-013 -9.85972e-014
rhumerus 75.195 -20.015 -5.71812
rradius 37.1496
rwrist 20.2357
rhand -28.4865 97.0677
rfingers 7.12502
rthumb -1.85582 -1312.96
lclavicle -1.4233e-013 -9.85972e-014
lhumerus 51.2384 28.6878 16.3766
lradius 47.7952
lwrist 1.56611
lhand -47.1077 94.8135
lfingers 7.12502
lthumb -19.8108 -65.8031
rfemur -86.8323 -32.6857 -7.77762
rtibia 79.1054
rfoot -20.1812 -26.2
rtoes 13.1165
lfemur -29.132 20.3281 5.06079
ltibia 47.5522
lfoot -19.0036 13.237
ltoes -9.87677
260
root -2.6217 16.5482 15.0656 -20.5616 63.6847 -191.282
lowerback -5.4788 3.40611 10.9786
upperback -8.63138 5.37016 8.08845
thorax -6.00616 2.61404 2.46365
lowerneck -38.4939 -6.5594 -20.3142
upperneck 1.72713 0.34329 11.4598
head 6.02772 1.46788 7.28529
rclavicle 2.13892e-013 1.145e-013
rhumerus 75.4246 -20.2832 -6.9418
rradius 36.4213
rwrist 21.0713
rhand -28.4866 96.7479
rfingers 7.12502
rthumb -1.85585 -1313.28
lclavicle 2.13892e-013 1.145e-013
lhumerus 52.3711 28.9978 17.806
lradius 47.7625
lwrist 0.405585
lhand -46.9858 95.1728
lfingers 7.12502
lthumb -19.6937 -66.1504
rfemur -85.8385 -32.0979 -6.87494
rtibia 80.6603
rfoot -21.4776 -25.9421
rtoes 12.9807
lfemur -31.4568 18.8703 6.41471
ltibia 45.8133
lfoot -19.35 15.054
ltoes -8.48632
261
root -2.60369 16.5821 14.896 -19.3479 65.0735 -190.647
lowerback -5.866 3.17548 10.6415
upperback -8.799 4.94266 7.73495
thorax -5.95698 2.38225 2.28452
lowerneck -39.4503 -6.71794 -20.4056
upperneck 1.95529 0.36331 11.9984
head 6.21891 1.56329 7.53493
rclavicle -7.79236e-014 1.90833e-014
rhumerus 75.8245 -20.6238 -7.87452
rradius 35.7169
rwrist 21.7892
rhand -29.5863 97.1251
rfingers 7.12502
rthumb -2.91797 -1312.92
lclavicle -7.79236e-014 1.90833e-014
lhumerus 53.501 29.4709 19.7992
lradius 47.8211
lwrist -0.971856
lhand -47.0229 95.4073
lfingers 7.12502
lthumb -19.7293 -66.3886
rfemur -84.887 -31.6624 -6.07601
rtibia 82.1931
rfoot -22.4155 -25.613
rtoes 12.2339
lfemur -33.7031 17.1297 7.80173
ltibia 44.2004
lfoot -20.0886 16.6981
ltoes -6.04573
262
root -2.58503 16.6114 14.7268 -18.2762 66.4059 -189.993
lowerback -6.10898 2.99043 10.3256
upperback -8.85364 4.60421 7.45444
thorax -5.87106 2.20246 2.16405
lowerneck -40.6087 -7.05764 -20.7679
upperneck 2.32182 0.330077 12.5348
head 6.48372 1.63177 7.82945
rclavicle 6.91771e-014 -2.22639e-014
rhumerus 76.2147 -21.1481 -8.58111
rradius 35.0172
rwrist 22.5944
rhand -30.8748 97.5483
rfingers 7.12502
rthumb -4.16224 -1312.51
lclavicle 6.91771e-014 -2.22639e-014
lhumerus 54.7046 30.0048 21.9461
lradius 47.8379
lwrist -2.28094
lhand -46.7384 95.2992
lfingers 7.12502
lthumb -19.4558 -66.2526
rfemur -84.0376 -31.3785 -4.92483
rtibia 83.7023
rfoot -22.6086 -25.1811
rtoes 10.805
lfemur -36.0308 17.0012 9.07433
ltibia 42.6901
lfoot -20.2917 17.3789
ltoes -5.01026
263
root -2.57046 16.6523 14.5482 -17.4078 67.6782 -189.356
lowerback -6.00089 2.85329 10.275
upperback -8.88263 4.38959 7.18216
thorax -5.94272 2.06507 1.89228
lowerneck -41.7901 -7.54736 -21.4352
upperneck 2.82855 0.261706 13.0875
head 6.80181 1.67376 8.18071
rclavicle 9.22361e-014 3.65764e-014
rhumerus 76.6193 -21.7157 -9.03454
rradius 34.2679
rwrist 23.3462
rhand -31.2996 97.2661
rfingers 7.12502
rthumb -4.57241 -1312.8
lclavicle 9.22361e-014 3.65764e-014
lhumerus 56.1009 30.4581 23.98
lradius 47.2833
lwrist -3.5085
lhand -46.525 96.1277
lfingers 7.12502
lthumb -19.2506 -67.0605
rfemur -83.1256 -31.0432 -3.7189
rtibia 85.2019
rfoot -22.8421 -24.8168
rtoes 7.83784
lfemur -38.0763 15.5078 10.8863
ltibia 41.2747
lfoot -20.6484 19.1636
ltoes -2.4077
264
root -2.55708 16.6979 14.3651 -16.4274 68.9656 -188.598
lowerback -5.73758 2.67683 10.3008
upperback -8.957 4.14786 6.91755
thorax -6.15379 1.90216 1.58085
lowerneck -43.2259 -8.03069 -21.8414
upperneck 3.75531 0.170289 13.6067
head 6.8749 1.7266 8.33209
rclavicle -1.84472e-013 -4.77083e-015
rhumerus 77.1184 -22.238 -9.31979
rradius 33.4881
rwrist 23.7986
rhand -31.5007 96.7627
rfingers 7.12502
rthumb -4.76658 -1313.31
lclavicle -1.84472e-013 -4.77083e-015
lhumerus 57.4091 30.8676 25.5972
lradius 46.3642
lwrist -4.6625
lhand -46.857 97.4626
lfingers 7.12502
lthumb -19.5698 -68.4275
rfemur -82.2637 -30.8597 -2.38354
rtibia 86.5747
rfoot -23.6877 -24.4211
rtoes 7.92458
lfemur -40.3018 14.7545 12.6362
ltibia 39.9548
lfoot -21.1681 20.0524
ltoes 0.0386808
265
root -2.54531 16.7421 14.1888 -15.8558 70.0888 -188.278
lowerback -5.4108 2.48877 10.5818
upperback -9.05041 3.89336 6.5829
thorax -6.41167 1.7103 1.05723
lowerneck -43.9377 -8.35216 -21.997
upperneck 3.76806 -0.0075321 14.0347
head 6.97203 1.72942 8.52028
rclavicle -4.77083e-014 -2.54444e-014
rhumerus 77.5365 -22.7698 -9.80924
rradius 32.6594
rwrist 24.1322
rhand -32.1343 96.602
rfingers 7.12502
rthumb -5.37839 -1313.49
lclavicle -4.77083e-014 -2.54444e-014
lhumerus 55.8446 30.6669 23.7932
lradius 48.2483
lwrist -3.54288
lhand -47.247 95.9168
lfingers 7.12502
lthumb -19.9447 -66.9203
rfemur -81.5734 -30.6959 -0.542599
rtibia 87.8626
rfoot -24.403 -24.0271
rtoes 8.71251
lfemur -42.6191 14.961 14.4227
ltibia 38.7077
lfoot -20.9197 20.6379
ltoes -1.97396
266
root -2.53177 16.7773 14.0094 -15.3503 71.0813 -187.769
lowerback -4.8402 2.35019 10.8893
upperback -9.07161 3.74386 6.19092
thorax -6.72487 1.56727 0.451361
lowerneck -44.5548 -8.53505 -21.6862
upperneck 3.7843 -0.267983 14.1984
head 7.08075 1.66063 8.5222
rclavicle -9.30312e-014 -3.18055e-015
rhumerus 77.6981 -23.3868 -10.1632
rradius 31.8614
rwrist 24.5008
rhand -32.4552 96.2989
rfingers 7.12502
rthumb -5.68828 -1313.8
lclavicle -9.30312e-014 -3.18055e-015
lhumerus 55.2188 30.4565 22.2938
lradius 48.8065
lwrist -2.66228
lhand -47.2391 95.4564
lfingers 7.12502
lthumb -19.9371 -66.4591
rfemur -80.78 -30.5865 1.48471
rtibia 89.0232
rfoot -24.1255 -24.0296
rtoes 7.59717
lfemur -44.6221 15.1648 16.2672
ltibia 37.4928
lfoot -20.8682 21.0707
ltoes -6.28139
267
root -2.51309 16.8052 13.8268 -13.2895 72.2496 -185.364
lowerback -4.00061 2.14206 10.6819
upperback -9.01564 3.52126 5.67717
thorax -7.1219 1.40937 -0.0130498
lowerneck -45.1136 -8.60602 -21.0923
upperneck 3.84951 -0.5622 14.2196
head 7.20913 1.5533 8.41992
rclavicle -6.36111e-015 1.90833e-014
rhumerus 77.9165 -24.0565 -10.3956
rradius 31.0315
rwrist 24.9352
rhand -32.2819 96.2109
rfingers 7.12502
rthumb -5.52095 -1313.88
lclavicle -6.36111e-015 1.90833e-014
lhumerus 54.311 30.223 20.173
lradius 49.1136
lwrist -1.13724
lhand -46.9876 95.5311
lfingers 7.12502
lthumb -19.6953 -66.5088
rfemur -79.8039 -30.8527 2.90638
rtibia 90.0364
rfoot -23.2779 -24.1553
rtoes 4.73512
lfemur -46.3799 14.9216 17.6845
ltibia 36.302
lfoot -21.278 21.4321
ltoes -3.58982
